<?xml version="1.0" standalone="no"?>
<!DOCTYPE svg PUBLIC "-//W3C//DTD SVG 20010904//EN"
 "http://www.w3.org/TR/2001/REC-SVG-20010904/DTD/svg10.dtd">
<svg version="1.0" xmlns="http://www.w3.org/2000/svg"
 width="500.000000pt" height="500.000000pt" viewBox="0 0 500.000000 500.000000"
 preserveAspectRatio="xMidYMid meet">

<g transform="translate(0.000000,500.000000) scale(0.100000,-0.100000)"
fill="#000000" stroke="none">
<path d="M2333 4179 c-356 -40 -690 -194 -943 -436 -201 -191 -342 -402 -435
-653 -16 -41 -32 -78 -37 -81 -13 -8 -45 -187 -58 -324 -66 -667 284 -1307
891 -1633 235 -126 575 -204 826 -189 165 10 343 36 387 56 23 11 75 32 116
47 105 38 276 123 350 175 34 24 78 55 97 67 20 13 73 60 120 105 329 316 513
739 513 1180 0 465 -166 871 -490 1198 -255 258 -579 427 -917 478 -104 16
-324 21 -420 10z m342 -34 c283 -31 531 -126 764 -293 86 -61 237 -199 307
-282 112 -132 242 -363 299 -533 49 -147 37 -199 -38 -161 -28 15 -29 18 -13
29 10 8 13 14 6 17 -18 6 0 38 21 38 24 0 24 7 -6 96 -86 257 -284 536 -515
726 -106 88 -321 211 -445 256 -215 78 -446 110 -655 92 -348 -29 -627 -138
-896 -351 -116 -92 -292 -294 -370 -425 -34 -57 -117 -230 -144 -299 -35 -91
-56 -103 -25 -15 43 125 160 349 232 445 84 113 255 285 353 357 239 173 482
267 780 303 143 17 194 17 345 0z m-211 -74 c15 -6 11 -10 -25 -23 -103 -38
-143 -48 -192 -47 l-52 2 60 7 c66 8 95 18 140 49 32 22 40 24 69 12z m135
-18 c18 -5 0 -13 -79 -35 -57 -16 -115 -27 -129 -25 -24 3 -24 4 -6 11 11 5
42 19 69 32 50 24 99 30 145 17z m241 -48 c87 -5 124 -12 150 -26 27 -16 29
-19 10 -14 -114 28 -341 46 -387 31 -13 -4 -28 -4 -35 1 -17 10 42 20 102 17
25 -2 97 -6 160 -9z m-682 -12 c-10 -2 -26 -2 -35 0 -10 3 -2 5 17 5 19 0 27
-2 18 -5z m-88 -18 c-48 -19 -86 -18 -45 0 17 8 41 14 55 14 22 0 21 -2 -10
-14z m1149 -101 c14 -12 -19 -1 -35 12 -18 14 -18 14 6 3 14 -6 27 -13 29 -15z
m-1400 12 c-10 -9 -69 -36 -69 -32 0 7 52 35 64 36 5 0 7 -2 5 -4z m667 -21
c3 -8 14 -17 24 -20 26 -8 70 5 70 20 0 32 258 -20 403 -81 114 -47 233 -131
230 -162 -3 -25 28 -46 56 -37 23 7 64 -36 55 -59 -7 -19 40 -76 63 -76 7 0
13 -5 13 -11 0 -5 4 -8 9 -4 5 3 16 -7 24 -22 8 -16 29 -55 46 -88 18 -33 42
-87 53 -120 27 -81 49 -237 38 -272 -5 -16 -12 -40 -15 -55 -4 -23 -9 -26 -23
-19 -52 26 -164 53 -194 47 -20 -3 -28 -3 -20 3 10 6 7 10 -12 13 -15 3 -26 1
-26 -6 0 -8 -3 -8 -8 0 -11 16 -133 35 -148 23 -8 -6 -19 -9 -26 -6 -8 3 -4 6
7 7 15 0 11 5 -14 15 -92 41 -259 60 -646 74 -356 13 -351 13 -376 -1 -17 -10
-23 -10 -26 0 -6 16 -35 15 -59 -3 -10 -8 -39 -15 -64 -15 -25 0 -76 -5 -115
-11 -194 -29 -173 -30 -215 11 -28 28 -39 48 -44 83 -9 57 -23 61 -32 10 -3
-21 -14 -77 -24 -124 -17 -89 -17 -128 1 -140 7 -4 5 -9 -5 -12 -22 -9 -33 21
-41 109 -10 112 26 304 58 304 8 0 7 4 0 11 -7 7 -8 18 -3 28 4 9 16 34 27 56
13 28 26 41 43 43 16 2 36 18 52 43 15 21 34 39 41 39 7 0 21 14 31 31 12 20
14 29 5 24 -7 -5 -3 6 10 23 12 18 34 35 49 38 15 4 37 12 48 20 12 7 31 10
43 7 21 -5 21 -6 -8 -24 -17 -10 -31 -23 -31 -29 0 -16 6 -13 57 26 82 62 82
136 0 93 -12 -7 -37 -13 -56 -14 l-35 -2 33 28 c26 21 40 26 66 22 21 -3 45 2
73 16 49 25 54 35 12 26 -38 -8 -38 0 0 20 35 18 51 19 47 3 -1 -9 8 -12 28
-10 17 1 43 3 59 3 18 0 39 10 60 31 31 32 26 34 -26 13 -12 -5 -18 -3 -18 7
0 16 143 56 220 61 117 9 151 7 156 -8z m836 -44 c106 -62 188 -124 265 -199
107 -104 328 -422 293 -422 -6 0 -19 14 -28 31 -29 53 -168 263 -191 289 -51
57 -81 87 -127 130 -57 52 -130 110 -139 110 -3 0 -11 5 -18 10 -7 6 -35 25
-64 43 -80 50 -88 56 -81 56 4 1 45 -21 90 -48z m-1602 8 c-14 -11 -38 -27
-55 -36 -154 -81 -330 -268 -467 -495 -34 -56 -64 -96 -66 -89 -5 16 75 148
150 247 112 149 241 270 368 347 79 48 112 60 70 26z m180 -175 c-8 -8 -23
-20 -34 -26 -19 -10 -18 -8 3 16 26 27 53 37 31 10z m-99 -38 c-6 -8 -22 -16
-34 -19 -22 -6 -22 -6 2 14 27 22 49 26 32 5z m1464 -6 c-3 -5 -13 -10 -21
-10 -8 0 -14 5 -14 10 0 6 9 10 21 10 11 0 17 -4 14 -10z m-1581 -69 c-15 -17
-31 -28 -36 -25 -5 4 5 22 23 41 40 41 52 27 13 -16z m-87 -128 c-15 -16 -17
-16 -17 -1 0 9 6 18 13 21 20 7 22 -2 4 -20z m-258 -179 c-6 -20 -23 -38 -50
-54 l-41 -22 7 23 c4 13 23 57 43 98 l37 74 7 -44 c3 -24 2 -58 -3 -75z m2403
-32 c5 -38 -8 -41 -46 -11 -23 18 -26 27 -26 87 l0 67 34 -56 c18 -30 35 -70
38 -87z m-2520 -32 c-14 -37 -20 -10 -8 40 10 42 11 43 14 15 1 -17 -1 -41 -6
-55z m2578 52 c0 -9 7 -30 15 -46 18 -33 15 -41 -7 -23 -16 13 -33 101 -17 91
5 -3 9 -13 9 -22z m-2614 -58 c-4 -9 -9 -15 -11 -12 -3 3 -3 13 1 22 4 9 9 15
11 12 3 -3 3 -13 -1 -22z m119 -14 c4 -6 2 -17 -4 -24 -8 -10 -6 -18 9 -31 11
-10 20 -28 19 -39 0 -12 -3 -15 -6 -8 -7 19 -20 15 -54 -19 -28 -27 -37 -31
-72 -26 -32 4 -40 2 -44 -13 -3 -11 -11 -16 -20 -13 -8 3 -12 11 -10 17 3 8
-7 12 -29 12 -28 -1 -34 -5 -34 -23 0 -13 -5 -23 -10 -23 -14 0 -7 119 9 148
6 12 18 22 26 22 20 0 45 -41 48 -79 2 -31 12 -41 19 -19 3 9 12 9 37 -2 31
-12 35 -12 47 5 8 10 14 15 14 11 0 -5 7 -3 15 4 17 14 20 75 5 85 -6 4 -8 11
-5 16 8 12 32 12 40 -1z m2436 -11 c-2 -8 -4 -33 -4 -56 0 -41 -17 -58 -32
-33 -3 5 -12 7 -20 3 -23 -8 -18 11 10 37 17 16 22 26 14 31 -7 4 -9 15 -5 24
7 20 43 15 37 -6z m-2491 -14 c12 -15 6 -67 -8 -63 -4 1 -17 -3 -29 -10 -21
-12 -27 -9 -25 9 1 4 -12 12 -28 19 -25 10 -28 15 -19 32 7 13 17 18 30 15 10
-3 22 -1 25 4 8 14 40 11 54 -6z m2598 -8 c15 -12 12 -41 -6 -43 -25 -3 -27
-5 -12 -14 12 -8 10 -10 -10 -10 -52 0 -88 48 -59 77 13 13 66 7 87 -10z m100
-12 c7 -14 12 -52 12 -83 -1 -47 -3 -54 -13 -41 -7 9 -17 14 -23 12 -6 -2 -22
6 -36 17 -24 18 -25 23 -16 58 5 20 15 43 20 50 17 20 44 14 56 -13z m-81
-100 c29 -45 15 -54 -20 -13 -16 18 -26 27 -22 21 3 -7 1 -13 -5 -13 -6 0 -8
-4 -5 -10 3 -6 -1 -7 -10 -3 -14 5 -14 8 -3 15 10 7 9 8 -4 4 -26 -8 -47 3
-43 22 2 9 4 17 4 17 1 0 20 -1 44 -3 35 -3 46 -10 64 -37z m-2575 -11 c14
-14 -66 -114 -91 -114 -5 0 -23 12 -41 26 -24 21 -28 29 -19 40 6 8 19 14 28
14 9 0 34 9 56 19 43 21 58 24 67 15z m2480 -18 c24 -13 55 -26 71 -30 31 -7
34 -17 10 -39 -18 -15 -36 -21 -60 -18 -21 2 -73 65 -73 89 0 27 0 27 52 -2z
m-1274 -3 c-43 -2 -113 -2 -155 0 -43 1 -8 3 77 3 85 0 120 -2 78 -3z m-1496
-44 c16 -27 16 -32 3 -46 -17 -17 -15 -38 4 -38 6 0 16 -6 21 -14 7 -12 13
-13 35 -3 44 20 86 -23 53 -56 -8 -8 -4 -11 17 -9 35 3 43 -16 13 -30 -29 -13
-81 3 -58 17 12 7 7 11 -17 16 -18 4 -33 10 -33 14 0 5 -18 -1 -41 -12 -39
-18 -42 -18 -60 -2 -10 9 -19 13 -19 8 0 -15 38 -34 55 -28 13 5 14 2 5 -20
-5 -14 -17 -40 -26 -57 -8 -17 -11 -28 -5 -24 6 3 18 20 27 38 l17 31 24 -29
25 -30 -7 32 c-5 26 -3 32 15 38 23 7 50 -10 50 -32 0 -7 -16 -23 -36 -35 -22
-13 -33 -26 -30 -35 8 -19 -36 -35 -47 -17 -5 9 -18 11 -36 8 -38 -8 -45 8
-19 41 17 22 19 29 7 36 -8 5 -20 7 -26 4 -10 -3 -13 11 -13 53 0 51 4 62 29
86 16 16 34 25 40 22 6 -4 11 -3 11 3 0 14 -23 19 -42 9 -14 -7 -18 -5 -18 10
0 11 7 25 15 32 11 9 15 9 15 1 0 -7 5 -9 11 -5 8 5 7 9 -1 14 -15 10 -6 40
12 40 7 0 21 -14 30 -31z m2017 16 c7 -7 -56 -4 -119 5 -46 7 -42 8 29 4 47
-2 87 -7 90 -9z m-1924 -16 c8 -12 -14 -70 -29 -81 -26 -18 -35 46 -9 74 18
21 29 23 38 7z m2865 -45 c0 -28 -4 -35 -17 -32 -21 4 -39 48 -30 72 5 14 11
15 27 6 14 -8 20 -21 20 -46z m-777 39 c-7 -2 -19 -2 -25 0 -7 3 -2 5 12 5 14
0 19 -2 13 -5z m-572 -13 c30 -6 121 -15 204 -20 213 -13 446 -68 500 -117 12
-10 61 -33 111 -52 91 -34 112 -46 102 -57 -4 -3 -42 11 -85 32 -73 36 -84 39
-170 39 -50 0 -86 3 -80 7 7 4 33 8 59 8 26 0 50 5 54 11 7 12 -100 2 -128
-12 -36 -19 -95 -9 -185 32 -24 10 -50 19 -58 19 -9 0 -50 -32 -91 -71 -72
-68 -77 -71 -114 -66 -54 7 -91 36 -136 107 -33 51 -43 60 -69 60 -16 0 -49
-11 -72 -24 -72 -42 -106 -48 -263 -47 -132 1 -157 -2 -217 -23 -37 -13 -88
-29 -113 -36 -25 -7 -91 -28 -147 -46 -105 -35 -157 -42 -168 -23 -11 17 2 22
53 20 42 -1 51 3 78 31 17 18 45 54 63 80 46 68 97 78 214 39 62 -21 71 -22
149 -9 l83 13 -75 3 -75 4 55 18 c65 22 141 26 138 8 -2 -8 9 -14 25 -16 21
-3 48 9 95 41 37 24 74 47 82 50 25 9 124 8 181 -3z m1457 -70 c20 0 23 -4 20
-27 -4 -35 -73 -77 -87 -54 -5 7 -13 11 -19 7 -6 -3 -14 -1 -18 5 -5 8 -3 9 7
4 12 -8 12 -6 0 8 -13 16 -16 15 -39 -18 -20 -28 -32 -35 -51 -33 -16 2 -27
10 -29 21 -3 15 1 18 15 13 17 -5 19 -2 15 23 -3 23 1 30 17 36 12 3 30 3 42
0 14 -5 25 -1 35 12 9 10 13 12 9 6 -9 -18 3 -16 22 3 11 11 19 12 26 5 6 -6
22 -11 35 -11z m-2742 -80 c-3 -22 -16 -57 -28 -77 -11 -21 -27 -49 -35 -63
-10 -20 -13 -21 -13 -7 0 11 9 32 20 48 21 28 33 59 44 112 10 42 19 32 12
-13z m2261 34 c-3 -3 -12 -4 -19 -1 -8 3 -5 6 6 6 11 1 17 -2 13 -5z m523 -60
c0 -48 -2 -55 -14 -44 -8 6 -12 19 -10 28 5 14 3 14 -9 -1 -13 -15 -19 -17
-37 -7 -12 6 -20 13 -18 15 5 6 83 64 86 64 1 1 2 -24 2 -55z m-362 -74 l25
-35 -28 25 c-27 25 -56 78 -54 102 0 7 7 -3 16 -22 8 -19 26 -51 41 -70z m218
61 c-4 -5 -1 -11 6 -13 15 -5 3 -37 -18 -45 -9 -3 -20 0 -25 8 -5 8 -9 10 -9
5 0 -6 -5 -5 -12 2 -9 9 -7 16 7 32 18 19 62 29 51 11z m94 -43 c0 -4 -4 -10
-10 -13 -5 -3 -10 -17 -10 -31 0 -14 -6 -27 -14 -30 -8 -3 -12 -16 -9 -32 1
-15 0 -20 -3 -12 -4 8 -15 23 -26 34 -21 23 -23 39 -6 69 18 35 39 47 60 33
10 -6 18 -14 18 -18z m-1556 1 c-5 -9 6 -10 41 -6 38 4 45 3 30 -6 -26 -14
-173 -9 -227 7 -42 14 -42 14 60 15 75 1 101 -2 96 -10z m917 -20 c56 -25 61
-34 20 -42 -15 -3 -52 -20 -81 -37 -64 -38 -102 -35 -154 10 -18 16 -53 41
-77 55 l-44 25 50 0 c28 1 68 5 90 10 56 12 139 3 196 -21z m-476 11 l20 -9
-20 0 c-11 0 -29 4 -40 9 l-20 9 20 0 c11 0 29 -4 40 -9z m1150 -77 c0 -34 -3
-59 -7 -56 -5 2 -8 18 -8 35 0 18 -7 36 -17 43 -15 11 -15 15 -4 29 24 29 36
12 36 -51z m-357 21 c-4 -3 -12 5 -18 18 -12 22 -12 22 6 6 10 -10 15 -20 12
-24z m-2608 7 c0 -12 -20 -25 -27 -18 -7 7 6 27 18 27 5 0 9 -4 9 -9z m2775
-2 c12 -19 -5 -23 -22 -6 -16 16 -16 17 -1 17 9 0 20 -5 23 -11z m-815 -19
c-13 -9 -13 -10 0 -10 8 -1 -10 -12 -40 -26 -42 -19 -64 -23 -93 -18 -27 4
-37 10 -33 20 9 23 -41 17 -94 -13 -45 -25 -48 -26 -86 -11 -21 9 -39 19 -41
24 -4 11 10 12 202 18 175 5 191 7 110 16 l-60 7 75 1 c52 1 70 -1 60 -8z
m977 -71 c-2 -35 -9 -80 -15 -99 -8 -30 -10 -20 -11 66 -1 55 2 104 6 108 16
16 24 -16 20 -75z m-3097 29 c0 -24 3 -61 5 -83 4 -28 3 -34 -3 -20 -15 33
-24 145 -12 145 5 0 10 -19 10 -42z m1120 34 c0 -4 -9 -13 -20 -20 -22 -13
-27 -3 -8 16 14 14 28 16 28 4z m110 -17 c34 -37 18 -41 -21 -6 -22 20 -28 31
-18 31 9 0 26 -11 39 -25z m34 18 c3 -4 17 -8 29 -10 26 -4 69 -43 47 -43 -7
0 -25 10 -39 23 l-26 22 19 -22 c28 -33 2 -28 -36 7 -23 20 -28 30 -17 30 9 0
19 -3 23 -7z m1256 -2 c0 -11 -102 -61 -122 -60 -7 0 1 7 17 14 17 7 39 23 49
34 19 21 56 29 56 12z m-2390 -11 c8 -5 11 -12 8 -16 -10 -9 -38 3 -38 16 0
12 10 13 30 0z m2840 1 c0 -14 -18 -23 -30 -16 -6 4 -8 11 -5 16 8 12 35 12
35 0z m-2920 -8 c0 -10 -20 -40 -20 -31 0 3 -3 13 -6 22 -4 11 -1 16 10 16 9
0 16 -3 16 -7z m240 -8 c0 -8 16 -30 35 -49 30 -30 35 -42 35 -81 0 -39 -5
-50 -41 -86 -22 -22 -43 -38 -46 -35 -3 3 0 12 7 21 7 8 9 15 4 15 -4 0 1 7
12 16 10 8 14 13 7 10 -6 -4 -13 -1 -15 5 -2 7 -19 13 -38 14 -19 1 -29 0 -22
-2 17 -7 15 -16 -8 -31 -16 -10 -20 -10 -18 0 2 7 -3 12 -9 11 -7 -2 -13 4
-13 12 0 8 5 15 11 15 6 0 9 6 6 14 -6 16 13 26 48 26 28 0 45 27 44 67 -1 21
-3 23 -6 8 -6 -25 -23 -44 -23 -26 0 7 -5 9 -10 6 -6 -4 -8 -10 -6 -14 3 -4
-1 -8 -9 -8 -8 0 -15 7 -15 14 0 8 -4 12 -8 9 -9 -5 -39 41 -31 47 9 8 85 36
97 36 6 1 12 -6 12 -14z m596 -21 c-11 -7 -22 -12 -25 -9 -2 3 4 12 15 19 10
8 21 12 24 9 3 -2 -4 -11 -14 -19z m716 6 c-18 -11 -42 -21 -55 -21 -14 -1
-10 -4 13 -9 l35 -7 -32 -2 c-17 0 -39 -4 -49 -8 -13 -5 -15 -3 -9 7 6 10 0
12 -33 6 -92 -14 -23 20 78 40 89 17 89 17 52 -6z m1279 -6 c11 -10 19 -12 19
-6 0 26 22 9 40 -30 19 -42 20 -42 20 -13 0 17 4 37 10 45 7 12 10 11 17 -5
10 -26 10 -142 0 -180 -8 -26 -10 -27 -18 -12 -6 10 -14 15 -20 12 -9 -6 -13
13 -11 46 1 12 -4 15 -19 12 -14 -4 -19 -12 -16 -24 7 -27 -12 -35 -28 -13
-12 16 -17 17 -35 6 -18 -11 -21 -10 -29 10 -8 21 -8 21 -15 -7 -5 -21 -2 -36
14 -57 27 -37 6 -38 -43 0 -39 30 -52 52 -62 105 -6 28 -3 39 14 56 11 11 27
18 36 15 10 -4 15 0 15 10 0 9 6 26 13 37 9 16 19 19 46 15 18 -3 42 -13 52
-22z m-2780 -34 c1 -16 3 -19 6 -8 2 9 15 24 29 32 23 16 24 15 24 -3 0 -11
-5 -21 -11 -23 -6 -2 -7 -11 -3 -22 7 -18 8 -18 15 2 11 30 27 28 35 -4 7 -27
-11 -48 -30 -37 -5 4 -6 1 -2 -6 12 -19 -2 -61 -20 -61 -10 0 -14 -6 -11 -14
3 -8 -1 -17 -9 -20 -8 -3 -14 -1 -14 4 0 11 -29 40 -40 40 -5 0 -10 -17 -12
-37 l-3 -38 -12 37 c-12 40 -5 89 24 166 17 45 31 42 34 -8z m1115 -12 c36
-13 47 -28 35 -47 -6 -8 -26 -3 -74 20 -37 17 -67 33 -67 35 0 9 76 3 106 -8z
m-1230 -117 c11 -32 26 -56 37 -59 9 -2 17 -12 17 -21 0 -9 14 -41 30 -71 l31
-54 -32 29 -32 30 7 -40 c9 -51 43 -171 60 -210 7 -16 19 -46 26 -65 8 -19 33
-72 57 -118 49 -96 54 -114 16 -57 -36 53 -95 176 -121 252 -26 76 -54 196
-51 220 2 19 -61 163 -72 163 -3 0 -2 -21 2 -47 10 -62 11 -78 2 -69 -4 3 -12
48 -19 99 -6 50 -15 103 -19 117 -14 47 40 -41 61 -99z m1154 66 c25 -16 70
-44 100 -63 30 -19 67 -34 85 -34 29 0 29 -1 -13 -20 -113 -51 -226 -75 -300
-64 -41 6 -56 16 -133 95 -48 49 -92 89 -98 89 -6 0 13 -24 42 -52 64 -65 118
-128 108 -128 -4 0 -22 16 -41 36 -80 85 -104 106 -141 124 -21 11 -50 20 -64
20 -14 0 -25 4 -25 10 0 11 126 17 310 16 119 -1 127 -2 170 -29z m945 18 c66
-8 139 -15 163 -15 48 0 106 -26 140 -63 15 -16 40 -27 68 -32 75 -11 70 -16
-83 -81 -42 -19 -85 -18 -127 2 -44 21 -76 12 -101 -29 -17 -27 -27 -32 -59
-33 -38 -1 -38 -1 -17 16 13 9 31 35 41 57 21 46 46 64 96 66 39 2 47 17 9 17
-42 0 -92 -26 -133 -69 -22 -23 -43 -41 -49 -41 -5 0 -41 23 -79 50 -130 95
-187 130 -211 130 -12 0 -23 5 -23 10 0 6 26 10 58 11 31 0 80 4 107 9 74 11
71 11 200 -5z m1060 -2 c-9 -21 -26 -157 -29 -225 -2 -57 -11 -70 -19 -28 -8
37 -25 39 -33 3 -7 -32 -86 -205 -91 -199 -4 3 18 57 54 135 33 70 38 111 24
196 -5 38 -9 71 -7 72 2 2 10 -11 19 -29 14 -30 17 -31 24 -13 16 38 53 105
59 105 3 0 3 -8 -1 -17z m-616 -19 c-9 -11 -8 -14 4 -14 8 0 17 -7 20 -14 4
-11 1 -13 -10 -9 -11 4 -14 2 -9 -5 18 -29 -83 4 -129 42 -19 16 -17 17 42 14
34 -2 65 0 69 4 13 13 25 -3 13 -18z m-822 10 c-3 -3 -12 -4 -19 -1 -8 3 -5 6
6 6 11 1 17 -2 13 -5z m-411 -23 c-8 -7 -19 -10 -25 -7 -18 12 -12 21 14 21
20 0 22 -2 11 -14z m344 9 c-14 -4 -34 -8 -45 -8 -16 0 -15 2 5 8 14 4 34 8
45 8 16 0 15 -2 -5 -8z m-911 -50 c36 -18 74 -47 97 -76 109 -133 215 -211
252 -187 10 5 22 19 27 29 33 64 56 84 96 84 29 0 52 9 89 36 91 65 365 147
384 115 3 -5 23 -12 43 -16 l38 -8 -55 -17 c-78 -24 -129 -52 -252 -137 -99
-68 -175 -109 -238 -128 -20 -6 -23 -5 -12 6 17 18 15 49 -3 49 -8 0 -15 -5
-15 -12 0 -6 -10 -22 -22 -35 -17 -18 -32 -23 -69 -23 -104 0 -204 62 -252
156 -40 79 -84 132 -126 154 -36 18 -61 40 -46 40 3 0 32 -13 64 -30z m988 14
c-3 -3 -12 -4 -19 -1 -8 3 -5 6 6 6 11 1 17 -2 13 -5z m-1067 -34 c42 -27 98
-80 84 -80 -3 0 -31 18 -63 40 -31 22 -68 40 -82 40 -13 0 -41 -14 -61 -30
-20 -17 -55 -41 -78 -54 l-40 -23 39 -13 c38 -12 39 -14 25 -35 -19 -30 -56
-45 -77 -33 -15 8 -47 58 -47 73 0 3 5 5 11 5 7 0 40 25 75 55 63 56 113 84
148 85 11 0 40 -13 66 -30z m2200 -26 c0 -2 -7 -4 -15 -4 -8 0 -15 4 -15 10 0
5 7 7 15 4 8 -4 15 -8 15 -10z m-1105 -14 c-11 -5 -27 -9 -35 -9 -9 0 -8 4 5
9 11 5 27 9 35 9 9 0 8 -4 -5 -9z m860 -20 c-7 -22 2 -60 15 -60 4 0 11 10 14
23 l7 22 17 -25 c9 -13 25 -33 35 -43 19 -19 13 -39 -19 -71 -15 -15 -19 -15
-49 4 -39 24 -55 25 -81 5 -24 -18 -6 -34 34 -28 l27 3 -25 -10 c-35 -16 -67
-4 -85 30 -16 31 -20 97 -6 118 14 23 65 51 94 51 24 1 27 -2 22 -19z m295 10
c0 -5 -2 -10 -4 -10 -3 0 -8 5 -11 10 -3 6 -1 10 4 10 6 0 11 -4 11 -10z
m-2637 -37 c6 -33 1 -41 -15 -25 -7 7 -28 12 -47 12 l-36 0 25 20 c37 29 67
26 73 -7z m2627 12 c25 -14 25 -15 -9 -8 l-33 6 6 -34 c5 -25 4 -30 -3 -19
-15 21 -14 70 2 70 6 -1 23 -7 37 -15z m-1073 -1 c12 -3 30 -18 39 -33 17 -26
17 -26 -3 -8 -32 28 -71 22 -108 -18 -31 -35 -33 -35 -76 -26 -24 6 -60 11
-79 12 -21 1 -8 5 35 10 51 7 76 16 95 33 36 34 58 40 97 30z m-562 -24 c-3
-5 -16 -10 -28 -9 -21 0 -21 1 -2 9 28 12 37 12 30 0z m-1285 -77 c41 -205
113 -378 234 -561 43 -65 62 -88 66 -76 5 14 7 14 18 1 7 -8 21 -13 31 -10 11
3 21 -2 25 -13 9 -23 0 -30 -19 -14 -8 7 -15 9 -15 5 0 -4 7 -13 17 -20 19
-14 10 -35 -15 -30 -9 2 -20 4 -24 4 -4 1 -5 7 -2 15 3 9 -5 21 -19 31 -27 18
-104 126 -155 217 -73 132 -138 322 -158 461 -9 66 2 59 16 -10z m626 41 c13
-3 24 -10 24 -15 0 -5 7 -6 14 -3 8 3 22 0 31 -8 38 -32 45 -40 40 -49 -4 -5
2 -9 12 -10 11 0 5 -6 -16 -16 -63 -27 -181 10 -181 58 0 32 20 61 37 55 8 -3
26 -9 39 -12z m920 -34 c-22 -11 -41 -18 -44 -16 -6 6 50 35 68 35 8 0 -3 -9
-24 -19z m934 4 c0 -8 -5 -12 -10 -9 -6 4 -8 11 -5 16 9 14 15 11 15 -7z m420
-159 c-13 -93 -31 -168 -37 -161 -3 2 2 36 11 75 9 38 16 110 17 158 1 78 2
84 11 48 6 -27 5 -67 -2 -120z m-973 119 c53 -5 80 -24 67 -45 -5 -9 0 -10 17
-6 13 4 49 7 79 8 30 1 43 4 28 6 -16 2 -28 9 -28 14 0 5 71 10 165 11 218 2
209 2 218 13 5 6 5 0 2 -13 -4 -13 -1 -29 5 -37 7 -8 9 -16 4 -16 -5 -1 5 -5
21 -9 44 -11 -469 -11 -610 0 -149 12 -163 14 -198 31 -27 12 -27 14 -11 26
10 7 14 13 10 13 -4 0 -5 4 -2 9 6 8 125 6 233 -5z m-1295 -181 c49 -26 50
-28 24 -31 -15 -2 -38 4 -52 13 -13 9 -29 13 -34 10 -6 -3 -10 -2 -10 3 0 6
-10 13 -22 16 -13 3 -31 18 -42 32 -18 26 -18 26 2 15 33 -18 35 -13 8 22 -40
52 -31 51 24 -3 28 -27 73 -61 102 -77z m276 121 c42 -12 22 -24 -40 -24 -58
1 -61 2 -44 15 21 16 47 19 84 9z m-629 -204 c20 -72 26 -109 16 -98 -11 11
-65 236 -64 268 1 27 4 20 14 -30 7 -36 23 -99 34 -140z m2845 163 c-32 -139
-119 -329 -207 -454 -55 -78 -71 -93 -92 -86 -17 7 -30 -9 -15 -18 16 -10 11
-25 -9 -25 -36 0 -31 37 10 87 21 26 39 53 39 60 0 7 5 13 10 13 6 0 10 -7 10
-15 0 -8 -4 -15 -9 -15 -10 0 -36 -58 -29 -65 12 -13 125 157 183 275 32 66
67 160 80 215 6 27 22 55 31 55 3 0 1 -12 -2 -27z m-1377 -9 c64 -12 20 -24
-86 -24 -117 0 -224 16 -214 33 6 10 233 3 300 -9z m949 1 c-11 -8 -29 -15
-40 -15 -21 1 -21 1 -2 15 11 8 29 15 40 15 21 -1 21 -1 2 -15z m-1846 -5 c0
-5 -2 -10 -4 -10 -3 0 -8 5 -11 10 -3 6 -1 10 4 10 6 0 11 -4 11 -10z m-763
-52 c-3 -8 -6 -5 -6 6 -1 11 2 17 5 13 3 -3 4 -12 1 -19z m2496 6 l88 -6 -7
-37 c-9 -50 -10 -51 -56 -51 -30 0 -53 9 -87 33 -52 38 -92 49 -145 40 -36 -6
-41 -23 -7 -23 10 0 24 -7 31 -15 27 -33 -54 -16 -145 30 l-90 46 165 -6 c91
-3 204 -8 253 -11z m-1462 -33 c9 0 16 -8 16 -16 0 -8 -4 -12 -9 -9 -4 3 -8 3
-8 0 0 -2 -3 -13 -6 -23 -5 -15 -4 -15 5 -3 6 8 11 10 11 4 0 -15 -21 -30 -42
-30 -21 1 -71 73 -55 79 7 3 26 4 42 2 17 -1 37 -3 46 -4z m324 -2 c24 1 16
-6 -43 -35 -40 -20 -75 -34 -79 -31 -3 4 18 18 48 31 59 27 45 34 -23 12 -24
-8 -57 -17 -75 -21 -17 -3 -62 -26 -100 -50 -39 -26 -80 -45 -96 -45 -16 0
-26 -4 -22 -10 3 -5 2 -10 -3 -10 -14 0 -22 26 -22 73 0 31 -5 45 -20 55 -11
7 -20 17 -20 24 0 21 49 -34 55 -63 14 -61 51 -61 123 0 88 74 110 83 182 75
36 -3 79 -6 95 -5z m750 -22 c28 -19 76 -44 109 -58 51 -21 55 -25 35 -30 -38
-10 -84 4 -237 72 -58 26 -63 23 -22 -13 38 -33 37 -33 -63 7 -65 26 -68 27
-88 10 -10 -10 -23 -32 -27 -49 -7 -27 -13 -31 -44 -34 -21 -2 -53 5 -75 16
-21 10 -63 26 -94 36 -55 17 -58 17 -115 -4 -98 -36 -101 -35 -40 14 33 25 64
46 70 47 6 0 45 3 86 5 41 3 76 7 79 9 2 3 88 5 190 5 l186 0 50 -33z m-1320
13 c-27 -12 -43 -12 -25 0 8 5 22 9 30 9 10 0 8 -3 -5 -9z m26 -15 c-18 -8
-38 -15 -45 -14 -15 1 46 28 64 28 8 0 0 -6 -19 -14z m-469 -42 c-33 -47 -54
-124 -55 -205 -1 -43 -5 -68 -8 -55 -16 56 -29 148 -28 193 1 53 4 47 15 -31
l6 -50 14 54 c8 30 26 70 40 88 30 40 43 44 16 6z m142 -12 c11 -12 13 -20 6
-23 -18 -6 28 -129 66 -175 19 -23 50 -51 69 -63 19 -12 32 -27 29 -32 -4 -6
-2 -8 3 -5 6 4 32 -5 59 -18 27 -14 55 -25 63 -25 8 0 12 -3 9 -6 -8 -7 -91
18 -150 45 -89 40 -161 153 -183 284 -7 41 3 47 29 18z m2225 -114 c1 -29 5
-46 11 -42 6 3 10 0 9 -7 -1 -19 -37 -95 -38 -80 -1 7 4 23 10 34 7 12 7 23 2
27 -5 3 -9 49 -10 101 0 73 2 86 8 55 4 -22 8 -62 8 -88z m58 71 c-3 -8 -6 -5
-6 6 -1 11 2 17 5 13 3 -3 4 -12 1 -19z m-237 -8 c0 -22 -51 -122 -86 -168
-43 -56 -100 -89 -169 -99 -45 -6 -53 -22 -12 -24 l22 0 -21 -9 c-64 -25 -959
-59 -1124 -41 -89 9 -84 9 70 6 127 -3 155 -2 120 6 -25 6 -63 15 -85 21 -22
6 -58 10 -80 9 -29 -1 -36 1 -25 8 8 5 12 12 9 15 -8 9 -62 9 -84 1 -14 -5
-16 -4 -7 2 19 14 -2 29 -60 43 -25 7 -56 21 -67 31 -11 10 -27 19 -36 19 -29
0 -12 34 25 51 87 41 97 42 540 50 481 9 739 27 905 63 121 27 165 31 165 16z
m-530 -46 c-36 -7 -180 -10 -168 -3 7 5 51 8 98 8 47 -1 78 -3 70 -5z m740
-31 c-11 -17 -11 -17 -6 0 3 10 6 24 7 30 0 9 2 9 5 0 3 -7 0 -20 -6 -30z
m-2517 -47 c3 -30 1 -43 -4 -35 -5 8 -8 34 -8 59 1 53 6 44 12 -24z m587 59
c0 -7 -30 -13 -34 -7 -3 4 4 9 15 9 10 1 19 0 19 -2z m77 -21 c-3 -3 -12 -4
-19 -1 -8 3 -5 6 6 6 11 1 17 -2 13 -5z m1880 -16 c-3 -8 -6 -5 -6 6 -1 11 2
17 5 13 3 -3 4 -12 1 -19z m-44 -128 c-15 -22 -29 -38 -31 -35 -5 4 45 75 53
75 2 0 -8 -18 -22 -40z m-2313 0 c-8 -5 -22 -9 -30 -9 -10 0 -8 3 5 9 27 12
43 12 25 0z m2176 -19 c7 -13 17 -28 24 -34 10 -9 11 -5 8 21 -5 34 -4 35 30
26 31 -9 32 -68 1 -85 -17 -9 -24 -8 -31 2 -8 12 -10 12 -15 1 -4 -10 -9 -9
-24 4 -18 16 -19 16 -19 0 0 -9 -4 -14 -10 -11 -5 3 -10 21 -10 40 0 29 3 33
23 28 20 -4 21 -3 5 10 -21 17 -24 31 -5 25 6 -3 17 -15 23 -27z m-2355 2 c13
-16 12 -17 -3 -4 -10 7 -18 15 -18 17 0 8 8 3 21 -13z m2290 -21 c-14 -5 -15
-69 -1 -77 19 -12 0 -24 -30 -20 -16 2 -33 6 -37 8 -13 8 -28 -16 -27 -40 1
-13 -5 -23 -12 -23 -34 0 -6 62 50 110 21 19 43 45 49 59 9 23 11 24 15 6 2
-10 -1 -21 -7 -23z m-2181 8 c0 -23 18 -26 34 -6 6 8 21 17 33 20 17 5 23 1
32 -21 l11 -28 -4 27 c-1 15 1 25 5 22 5 -3 9 -14 9 -24 0 -11 16 -32 35 -47
19 -15 35 -31 35 -35 0 -5 -16 -8 -36 -8 -20 0 -33 -4 -29 -10 3 -6 -1 -7 -10
-4 -10 4 -13 13 -9 27 5 15 3 19 -9 14 -11 -4 -17 1 -20 16 -2 12 -5 3 -6 -20
-1 -32 3 -43 14 -43 19 0 57 -21 68 -37 4 -7 14 -19 23 -27 14 -15 15 -58 2
-72 -10 -9 -69 6 -62 17 3 5 1 9 -5 9 -24 0 3 30 28 31 24 1 23 2 -8 10 -19 6
-35 18 -38 30 -4 12 -10 16 -17 11 -14 -10 -34 -9 -68 5 -31 14 -48 36 -21 27
17 -5 17 -5 0 9 -16 14 -16 15 12 19 17 2 28 1 25 -3 -4 -8 15 -24 20 -18 2 2
7 15 11 28 6 20 4 23 -9 18 -9 -4 -16 -1 -16 6 0 8 -3 8 -9 -1 -21 -33 -83 23
-68 61 9 25 47 22 47 -3z m2240 -90 c0 -5 -5 -10 -11 -10 -5 0 -7 -5 -4 -10 4
-7 19 -3 41 10 19 12 34 17 34 12 0 -5 -7 -12 -15 -16 -9 -3 -12 -12 -8 -22 5
-14 8 -13 24 7 l18 24 -6 -23 c-3 -13 -16 -28 -29 -34 -25 -12 -24 -31 1 -21
8 3 15 1 15 -3 0 -15 -54 -39 -78 -36 -20 3 -21 6 -10 20 10 12 10 14 1 8 -7
-4 -13 -5 -13 -1 0 3 14 14 31 24 l30 19 -25 0 c-14 0 -26 -5 -26 -10 0 -5 -4
-7 -9 -4 -5 3 -11 -1 -15 -9 -3 -8 -14 -15 -25 -15 -11 0 -23 -4 -26 -10 -3
-5 3 -10 14 -10 26 0 27 -16 4 -29 -10 -5 -15 -13 -11 -17 4 -4 14 -1 23 6 9
7 18 10 21 7 3 -3 -4 -11 -16 -17 -16 -8 -25 -8 -35 0 -10 8 -16 7 -23 -6 -8
-15 -14 -16 -34 -7 -12 7 -17 12 -10 12 7 1 12 15 12 36 0 37 8 43 29 23 11
-11 13 -10 8 4 -8 23 33 68 62 68 11 0 26 9 33 20 14 21 28 27 28 10z m-340
-10 c11 -7 1 -10 -35 -10 -36 0 -46 3 -35 10 8 5 24 10 35 10 11 0 27 -5 35
-10z m-1680 -40 c0 -5 -2 -10 -4 -10 -3 0 -8 5 -11 10 -3 6 -1 10 4 10 6 0 11
-4 11 -10z m-160 -56 c0 -11 -8 -14 -27 -12 -17 2 -28 9 -28 18 0 8 -6 19 -12
23 -7 4 -13 12 -13 18 0 5 18 0 40 -11 22 -11 40 -27 40 -36z m947 -68 c48
-33 82 -83 89 -132 l6 -39 -21 32 c-18 28 -85 73 -108 73 -13 0 -13 -39 -1
-46 7 -4 8 -2 4 4 -14 23 15 12 40 -15 25 -27 58 -92 51 -100 -2 -2 -19 7 -38
20 -32 22 -37 22 -57 9 -22 -14 -22 -16 -5 -34 17 -18 16 -19 -11 -8 -45 17
-86 43 -86 55 1 5 7 21 15 35 20 35 19 40 -10 38 -28 -3 -31 -8 -12 -27 7 -7
-4 -5 -26 5 -32 15 -35 20 -24 32 16 15 107 7 107 -9 0 -5 4 -9 10 -9 5 0 6 7
3 17 -5 12 -3 14 8 8 8 -4 5 1 -6 12 -14 14 -24 17 -32 11 -7 -6 -23 -8 -36
-4 -21 5 -23 10 -18 43 11 67 81 80 158 29z m1043 30 c0 -3 -4 -8 -10 -11 -5
-3 -10 -1 -10 4 0 6 5 11 10 11 6 0 10 -2 10 -4z m-539 -16 c14 -8 19 -21 19
-49 0 -22 6 -44 15 -51 21 -17 19 -23 -11 -37 -28 -13 -49 -9 -39 8 4 5 -2 9
-12 9 -17 1 -17 1 -1 14 10 7 15 16 11 19 -12 13 -51 7 -64 -10 -8 -9 -9 -14
-3 -10 7 4 18 -1 25 -10 8 -9 9 -14 3 -10 -7 4 -14 0 -17 -7 -4 -11 1 -14 21
-13 15 1 27 -2 28 -8 0 -5 3 -17 6 -25 17 -45 16 -49 -17 -69 -19 -11 -51 -23
-72 -26 l-38 -6 45 26 c40 23 37 26 -10 7 -12 -5 -13 -3 -2 10 10 12 9 18 -3
28 -9 7 -15 8 -15 2 0 -9 -51 -32 -71 -32 -19 0 34 97 62 114 16 9 29 21 29
27 0 23 -54 -1 -88 -40 l-23 -26 6 30 c11 53 49 109 85 127 39 20 101 23 131
8z m-381 -41 c20 -38 20 -40 3 -37 -10 2 -17 10 -15 16 1 7 -4 12 -12 12 -7 0
-21 11 -30 25 -16 24 -16 25 9 25 19 0 29 -9 45 -41z m1090 34 c0 -5 -13 -21
-28 -38 -102 -109 -364 -253 -559 -309 -95 -27 -64 -1 40 34 161 54 407 188
407 221 0 12 -47 12 -69 -1 -24 -13 -213 -61 -218 -56 -2 2 17 12 44 22 26 9
63 23 82 31 18 7 48 13 65 13 19 0 53 13 82 31 43 28 46 29 26 7 -12 -14 -19
-28 -15 -31 16 -17 45 -4 80 38 34 40 63 57 63 38z m-2119 -38 c26 -23 44 -32
55 -28 11 4 15 2 11 -4 -7 -12 37 -20 121 -22 55 -2 109 -17 99 -28 -4 -3 -34
0 -68 6 -33 7 -64 10 -67 7 -3 -3 1 -6 9 -6 12 0 12 -2 0 -9 -18 -12 45 -53
174 -116 98 -48 286 -115 323 -115 12 0 25 -7 28 -15 4 -8 13 -15 22 -15 8 0
13 -2 10 -5 -11 -11 -220 53 -317 96 -124 55 -303 158 -296 170 3 3 -3 6 -13
5 -10 0 -16 5 -14 13 2 8 -3 11 -13 8 -8 -4 -15 -2 -15 3 0 6 -6 10 -13 10 -7
0 -30 18 -51 40 -46 49 -37 52 15 5z m113 -7 c19 -13 35 -26 36 -30 0 -17 -27
-6 -60 22 -41 35 -27 40 24 8z m993 -4 c11 -18 11 -23 0 -32 -11 -9 -17 -4
-30 24 -16 33 -16 35 -1 32 9 -2 23 -12 31 -24z m-387 -6 c0 -27 -18 -41 -44
-34 -33 8 -34 26 -1 26 14 0 25 5 25 10 0 6 5 10 10 10 6 0 10 -6 10 -12z
m780 2 c0 -5 7 -10 16 -10 19 0 14 -20 -9 -34 -13 -8 -22 -6 -39 12 -20 19
-21 24 -8 32 20 13 40 13 40 0z m-772 -114 c2 -10 -3 -16 -15 -16 -17 -1 -17
-1 0 -11 14 -9 26 -59 12 -59 -10 0 -116 29 -125 35 -12 8 -7 84 8 112 l12 23
53 -34 c28 -18 53 -41 55 -50z m437 62 c-4 -13 -9 -38 -12 -56 -4 -21 -17 -42
-41 -62 -39 -32 -59 -32 -24 0 12 12 23 38 27 67 7 44 25 73 48 73 5 0 6 -10
2 -22z m383 -28 c-3 -18 0 -31 9 -34 7 -3 13 -17 13 -31 0 -31 -30 -45 -95
-45 l-44 0 14 28 c12 21 12 28 2 31 -33 11 -23 28 31 53 73 34 75 34 70 -2z
m-1097 0 c6 0 8 -4 5 -9 -8 -12 -46 -2 -46 11 0 6 7 7 16 4 9 -3 20 -6 25 -6z
m-108 -7 c-13 -2 -33 -2 -45 0 -13 2 -3 4 22 4 25 0 35 -2 23 -4z m1244 -19
c-3 -3 -12 -4 -19 -1 -8 3 -5 6 6 6 11 1 17 -2 13 -5z m-667 -59 c8 -9 8 -15
2 -15 -18 0 -42 12 -42 21 0 14 26 10 40 -6z m247 -18 c-5 -14 -57 -30 -57
-18 0 7 53 39 59 35 2 -2 1 -9 -2 -17z m-347 -3 l25 -15 -25 7 c-14 3 -32 10
-40 15 -13 7 -13 8 0 8 8 0 26 -6 40 -15z m127 -24 c3 -10 2 -11 -4 -4 -4 7
-17 14 -28 17 -16 5 -15 5 4 4 14 -1 26 -9 28 -17z m475 -6 l31 -16 -29 -19
c-16 -10 -41 -24 -56 -30 -30 -12 -82 -4 -73 11 3 6 0 10 -7 10 -8 1 -6 6 6
15 16 12 22 12 28 2 6 -9 8 -9 8 0 0 7 12 19 28 27 34 19 27 19 64 0z m-645
-5 c6 -6 41 -13 78 -14 87 -3 105 -18 36 -30 -19 -3 -38 -8 -43 -11 -9 -6 -97
24 -113 38 -6 6 -5 12 5 18 19 12 24 12 37 -1z m43 5 c0 -8 -19 -13 -24 -6 -3
5 1 9 9 9 8 0 15 -2 15 -3z m423 -1 c-7 -2 -21 -2 -30 0 -10 3 -4 5 12 5 17 0
24 -2 18 -5z m-688 -23 c3 -6 -1 -7 -9 -4 -18 7 -21 14 -7 14 6 0 13 -4 16
-10z m415 0 c0 -5 -8 -10 -17 -10 -15 0 -16 2 -3 10 19 12 20 12 20 0z m110
-9 c14 -28 3 -49 -31 -56 -34 -8 -39 -35 -6 -36 12 -1 56 -3 97 -5 125 -5 181
-11 188 -19 9 -9 -307 0 -330 10 -17 7 -26 28 -10 23 4 -2 7 0 7 4 0 4 9 14
20 23 19 15 18 16 -20 10 -22 -4 -45 -11 -51 -16 -7 -5 -31 -14 -55 -18 l-44
-9 41 -1 c23 -1 57 -8 75 -16 33 -15 31 -15 -51 -10 -125 8 -180 16 -180 25 0
10 51 20 104 20 62 0 179 46 199 78 12 18 35 15 47 -7z m-474 -17 c18 -14 18
-14 -6 -3 -31 14 -36 19 -24 19 6 0 19 -7 30 -16z m139 -24 c-3 -5 -16 -10
-28 -9 -20 1 -20 2 3 9 14 4 26 8 28 9 2 1 0 -3 -3 -9z m625 -60 c-8 -5 -19
-10 -25 -10 -5 0 -3 5 5 10 8 5 20 10 25 10 6 0 3 -5 -5 -10z"/>
<path d="M2634 3835 c-4 -9 -4 -18 -1 -22 11 -10 59 7 54 20 -6 19 -46 21 -53
2z"/>
<path d="M2260 3833 c-32 -4 -49 -17 -50 -35 0 -5 7 -8 15 -8 9 0 12 -6 9 -15
-10 -25 20 -17 49 13 25 26 36 54 20 50 -5 0 -24 -3 -43 -5z"/>
<path d="M2420 3815 c-10 -12 -9 -16 4 -21 24 -9 66 4 66 21 0 18 -12 19 -28
3 -9 -9 -12 -9 -12 0 0 17 -15 15 -30 -3z"/>
<path d="M2780 3814 c0 -12 34 -33 53 -34 34 0 15 35 -21 38 -17 2 -32 0 -32
-4z"/>
<path d="M2677 3783 c-13 -12 26 -43 55 -43 21 0 28 5 28 19 0 24 -65 43 -83
24z"/>
<path d="M2394 3735 c-3 -8 -3 -19 1 -25 8 -13 45 -13 45 0 0 6 -4 10 -10 10
-5 0 -10 5 -10 11 0 5 5 7 10 4 6 -3 10 -1 10 4 0 16 -40 13 -46 -4z"/>
<path d="M2870 3742 c0 -17 39 -44 57 -40 16 3 16 5 -5 26 -22 22 -52 30 -52
14z"/>
<path d="M2104 3723 c-11 -11 -13 -18 -5 -21 16 -5 81 18 81 29 0 16 -58 10
-76 -8z"/>
<path d="M2815 3710 c-9 -15 4 -30 26 -30 22 0 24 11 7 28 -15 15 -25 15 -33
2z"/>
<path d="M2291 3696 l-24 -14 22 -7 c22 -7 51 8 51 26 0 13 -21 10 -49 -5z"/>
<path d="M2597 3674 c-35 -19 -30 -38 10 -42 33 -3 59 19 49 43 -7 19 -23 19
-59 -1z m33 -14 c-8 -5 -22 -10 -30 -10 -13 0 -13 1 0 10 8 5 22 10 30 10 13
0 13 -1 0 -10z"/>
<path d="M3000 3666 c0 -17 51 -56 74 -56 24 0 19 35 -6 48 -44 21 -68 24 -68
8z"/>
<path d="M2490 3650 c0 -5 6 -10 14 -10 8 0 18 5 21 10 3 6 -3 10 -14 10 -12
0 -21 -4 -21 -10z"/>
<path d="M2240 3629 c-13 -24 -4 -41 10 -19 10 16 13 40 5 40 -2 0 -9 -9 -15
-21z"/>
<path d="M2060 3615 c0 -9 9 -15 21 -15 18 0 19 2 9 15 -7 8 -16 15 -21 15 -5
0 -9 -7 -9 -15z"/>
<path d="M2847 3623 c-13 -12 -7 -41 12 -64 16 -20 21 -21 35 -10 21 18 20 44
-2 64 -20 18 -34 21 -45 10z m41 -39 c-10 -10 -28 6 -28 24 0 15 1 15 17 -1 9
-9 14 -19 11 -23z"/>
<path d="M2332 3583 c2 -13 14 -19 46 -21 47 -4 57 12 15 22 -16 4 -36 9 -46
12 -14 5 -18 1 -15 -13z"/>
<path d="M2080 3569 c-46 -35 -50 -40 -45 -50 7 -10 58 16 77 39 20 23 -5 32
-32 11z"/>
<path d="M2545 3560 c-6 -10 29 -50 45 -50 17 0 24 30 11 43 -9 9 -11 8 -5 -7
6 -16 5 -17 -16 -6 -18 10 -20 14 -9 21 11 7 11 9 -3 9 -9 0 -19 -4 -23 -10z"/>
<path d="M2137 3516 c-26 -9 -32 -26 -11 -33 13 -4 59 33 48 39 -5 3 -21 0
-37 -6z"/>
<path d="M1880 3508 c0 -18 18 -34 28 -24 3 4 -2 14 -11 23 -16 16 -17 16 -17
1z"/>
<path d="M2356 3504 c-17 -16 -22 -54 -8 -54 12 0 52 44 52 58 0 17 -26 15
-44 -4z m24 -14 c-24 -15 -37 -11 -16 5 11 8 22 12 25 9 3 -3 -1 -9 -9 -14z"/>
<path d="M2920 3502 l-35 -16 29 -4 c17 -2 35 3 43 11 22 22 2 27 -37 9z"/>
<path d="M2566 3491 c-4 -5 -2 -12 3 -15 5 -4 12 -2 15 3 4 5 2 12 -3 15 -5 4
-12 2 -15 -3z"/>
<path d="M1790 3470 c0 -28 16 -50 37 -50 7 0 13 11 13 25 0 25 -20 37 -20 13
-1 -7 -7 -2 -15 12 l-14 25 -1 -25z"/>
<path d="M3160 3469 c12 -22 37 -35 48 -25 7 7 -36 45 -51 46 -4 0 -3 -9 3
-21z"/>
<path d="M2805 3469 c-4 -5 -4 -21 -1 -35 5 -17 13 -24 31 -24 30 0 34 29 7
53 -22 20 -28 21 -37 6z m35 -30 c0 -6 -4 -7 -10 -4 -5 3 -10 11 -10 16 0 6 5
7 10 4 6 -3 10 -11 10 -16z"/>
<path d="M1690 3450 c-21 -15 -23 -21 -12 -32 11 -11 17 -9 32 12 33 43 23 53
-20 20z"/>
<path d="M2520 3462 c0 -7 7 -29 15 -49 l15 -36 21 27 c20 25 19 46 -2 46 -6
0 -7 -4 -4 -10 12 -19 -7 -10 -26 13 -10 12 -18 16 -19 9z"/>
<path d="M3102 3438 c-25 -25 -6 -69 37 -83 l24 -7 -23 31 c-12 18 -20 40 -17
51 6 23 -3 26 -21 8z"/>
<path d="M2616 3414 c-4 -10 -1 -23 7 -31 11 -11 16 -10 31 6 10 11 15 25 11
31 -6 9 -10 9 -16 -1 -8 -12 -10 -12 -18 -1 -6 11 -10 10 -15 -4z"/>
<path d="M3140 3420 c0 -5 5 -10 10 -10 6 0 10 5 10 10 0 6 -4 10 -10 10 -5 0
-10 -4 -10 -10z"/>
<path d="M1961 3401 c-41 -11 -37 -31 6 -31 28 0 34 3 23 10 -10 6 -11 10 -2
10 6 0 12 5 12 10 0 11 -4 11 -39 1z"/>
<path d="M2113 3385 c-20 -14 -22 -55 -4 -55 15 0 53 49 46 59 -8 15 -17 14
-42 -4z m37 0 c0 -2 -10 -10 -22 -16 -21 -11 -22 -11 -9 4 13 16 31 23 31 12z"/>
<path d="M3315 3381 c-6 -11 20 -33 28 -24 4 3 7 10 7 14 0 11 -29 19 -35 10z"/>
<path d="M1700 3351 c-23 -33 -20 -51 9 -51 26 0 41 20 40 55 0 26 -1 27 -9
10 -4 -12 -16 -27 -26 -35 -17 -14 -17 -14 1 13 25 38 12 45 -15 8z"/>
<path d="M2963 3343 c-21 -14 -32 -43 -17 -43 15 0 64 36 64 47 0 17 -20 16
-47 -4z"/>
<path d="M2315 3339 c-21 -33 59 -109 87 -81 7 7 -2 22 -32 51 -48 46 -46 45
-55 30z"/>
<path d="M3205 3311 c-3 -6 1 -24 10 -41 12 -23 22 -30 45 -30 20 0 30 5 30
15 0 8 -4 15 -9 15 -5 0 -23 11 -39 25 -18 15 -33 21 -37 16z m51 -58 c-7 -7
-26 7 -26 19 0 6 6 6 15 -2 9 -7 13 -15 11 -17z"/>
<path d="M2155 3285 c-31 -25 -28 -33 4 -15 10 5 21 16 25 25 7 20 6 19 -29
-10z"/>
<path d="M1566 3282 c-8 -14 3 -62 14 -62 18 0 20 20 7 46 -9 16 -17 23 -21
16z"/>
<path d="M1898 3269 c-26 -15 -22 -39 5 -39 27 0 47 17 47 40 -1 12 -2 12 -11
-2 -5 -10 -15 -18 -21 -18 -7 0 -6 5 2 15 14 17 3 19 -22 4z"/>
<path d="M3100 3244 c-24 -24 -31 -37 -23 -45 12 -12 73 34 73 56 0 26 -15 23
-50 -11z"/>
<path d="M1985 3217 c-7 -18 9 -47 27 -47 7 0 7 4 0 13 -5 6 -12 21 -14 32 -5
18 -6 19 -13 2z"/>
<path d="M2810 3216 c0 -21 35 -60 48 -52 15 9 5 32 -24 51 -20 13 -24 13 -24
1z"/>
<path d="M1831 3198 c-1 -34 18 -47 36 -23 19 26 16 38 -7 32 -10 -3 -21 0
-24 7 -2 6 -5 -1 -5 -16z"/>
<path d="M2609 3191 c-19 -15 -21 -22 -12 -32 9 -9 17 -8 37 5 28 18 35 46 12
46 -8 0 -24 -9 -37 -19z m31 -1 c0 -5 -5 -10 -11 -10 -5 0 -7 5 -4 10 3 6 8
10 11 10 2 0 4 -4 4 -10z"/>
<path d="M1622 3179 c-27 -25 -25 -55 3 -51 23 4 57 40 52 56 -6 19 -32 17
-55 -5z m38 -4 c-7 -9 -15 -13 -19 -10 -3 3 1 10 9 15 21 14 24 12 10 -5z"/>
<path d="M1585 3079 c-4 -12 -2 -26 4 -32 8 -8 11 -2 11 21 0 37 -6 41 -15 11z"/>
<path d="M3810 3100 c0 -5 5 -10 11 -10 5 0 7 5 4 10 -3 6 -8 10 -11 10 -2 0
-4 -4 -4 -10z"/>
<path d="M1180 2944 l-25 -14 26 0 c14 0 34 7 45 15 19 14 19 14 -1 14 -11 -1
-31 -7 -45 -15z"/>
<path d="M3770 2949 c0 -9 48 -24 55 -17 2 2 -9 9 -25 15 -17 6 -30 7 -30 2z"/>
<path d="M2415 2819 c-55 -42 -57 -46 -7 -18 42 23 73 50 56 48 -5 0 -27 -14
-49 -30z"/>
<path d="M2786 2775 c-3 -9 -6 -31 -5 -48 1 -28 2 -26 10 12 9 46 6 65 -5 36z"/>
<path d="M3832 2510 c0 -14 2 -19 5 -12 2 6 2 18 0 25 -3 6 -5 1 -5 -13z"/>
<path d="M3860 2486 c0 -29 -3 -33 -20 -29 -11 3 -20 13 -21 22 0 11 -2 12 -6
3 -4 -10 -11 -8 -29 9 l-24 22 3 -39 c2 -37 4 -39 30 -36 15 2 34 -2 43 -9 13
-10 17 -10 25 2 5 8 9 22 9 32 0 10 5 27 10 38 8 15 7 19 -5 19 -10 0 -15 -10
-15 -34z"/>
<path d="M2000 2413 c0 -13 29 -38 35 -31 3 3 -4 13 -15 23 -11 10 -20 13 -20
8z"/>
<path d="M2985 2429 c12 -39 27 -48 23 -15 -2 16 -9 31 -17 34 -10 3 -11 -2
-6 -19z"/>
<path d="M3259 2391 c39 -37 41 -59 2 -32 -42 30 -46 26 -15 -14 32 -42 51
-45 60 -8 6 22 1 32 -25 55 -41 37 -62 36 -22 -1z"/>
<path d="M4073 2335 c0 -27 2 -38 4 -22 2 15 2 37 0 50 -2 12 -4 0 -4 -28z"/>
<path d="M3430 2435 c-7 -8 -8 -15 -2 -15 5 0 15 7 22 15 7 8 8 15 2 15 -5 0
-15 -7 -22 -15z"/>
<path d="M2299 2163 c-13 -16 -12 -17 4 -4 9 7 17 15 17 17 0 8 -8 3 -21 -13z"/>
<path d="M2690 1920 c41 -21 82 -39 90 -39 8 0 -20 17 -63 39 -42 22 -83 40
-90 40 -6 -1 22 -19 63 -40z"/>
<path d="M2715 1260 c-3 -5 -1 -10 4 -10 6 0 11 5 11 10 0 6 -2 10 -4 10 -3 0
-8 -4 -11 -10z"/>
</g>
</svg>
