<svg width="200" height="200" viewBox="0 0 200 200" fill="none" xmlns="http://www.w3.org/2000/svg">
<path d="M176.484 80.3125C173.516 77.2656 170.469 74.0625 169.297 71.3281C168.125 68.5938 168.203 64.5313 168.125 60.3906C168.047 52.8125 167.891 44.1406 161.875 38.125C155.859 32.1094 147.188 31.9531 139.609 31.875C135.469 31.7969 131.25 31.7188 128.672 30.7031C126.094 29.6875 122.734 26.4844 119.688 23.5156C114.297 18.3594 108.125 12.5 100 12.5C91.875 12.5 85.7031 18.3594 80.3125 23.5156C77.2656 26.4844 74.0625 29.5312 71.3281 30.7031C68.5938 31.875 64.5313 31.7969 60.3906 31.875C52.8125 31.9531 44.1406 32.1094 38.125 38.125C32.1094 44.1406 31.9531 52.8125 31.875 60.3906C31.7969 64.5313 31.7188 68.75 30.7031 71.3281C29.6875 73.9063 26.4844 77.2656 23.5156 80.3125C18.3594 85.7031 12.5 91.875 12.5 100C12.5 108.125 18.3594 114.297 23.5156 119.688C26.4844 122.734 29.5312 125.938 30.7031 128.672C31.875 131.406 31.7969 135.469 31.875 139.609C31.9531 147.188 32.1094 155.859 38.125 161.875C44.1406 167.891 52.8125 168.047 60.3906 168.125C64.5313 168.203 68.75 168.281 71.3281 169.297C73.9063 170.312 77.2656 173.516 80.3125 176.484C85.7031 181.641 91.875 187.5 100 187.5C108.125 187.5 114.297 181.641 119.688 176.484C122.734 173.516 125.938 170.469 128.672 169.297C131.406 168.125 135.469 168.203 139.609 168.125C147.188 168.047 155.859 167.891 161.875 161.875C167.891 155.859 168.047 147.188 168.125 139.609C168.203 135.469 168.281 131.25 169.297 128.672C170.312 126.094 173.516 122.734 176.484 119.688C181.641 114.297 187.5 108.125 187.5 100C187.5 91.875 181.641 85.7031 176.484 80.3125ZM138.672 85.7812L92.8906 129.531C91.7071 130.645 90.1405 131.26 88.5156 131.25C86.9146 131.256 85.3739 130.64 84.2188 129.531L61.3281 107.656C60.6932 107.102 60.1769 106.426 59.8101 105.667C59.4434 104.909 59.2338 104.084 59.194 103.242C59.1541 102.4 59.2849 101.559 59.5784 100.77C59.8719 99.9798 60.3221 99.2575 60.9018 98.6461C61.4816 98.0347 62.179 97.5469 62.9521 97.2119C63.7253 96.8769 64.5581 96.7017 65.4007 96.6968C66.2432 96.6919 67.0781 96.8574 67.8551 97.1834C68.632 97.5094 69.335 97.9891 69.9219 98.5938L88.5156 116.328L130.078 76.7188C131.293 75.6585 132.871 75.1091 134.482 75.1853C136.093 75.2615 137.612 75.9575 138.722 77.1277C139.832 78.298 140.446 79.8519 140.437 81.4646C140.428 83.0773 139.795 84.624 138.672 85.7812Z" fill="url(#paint0_linear_195_645)"/>
<defs>
<linearGradient id="paint0_linear_195_645" x1="100" y1="12.5" x2="100" y2="187.5" gradientUnits="userSpaceOnUse">
<stop stop-color="#E1D24A"/>
<stop offset="1" stop-color="#C69223"/>
</linearGradient>
</defs>
</svg>
