<svg width="20" height="16" viewBox="0 0 20 16" fill="none" xmlns="http://www.w3.org/2000/svg">
<path d="M14.95 12.9499C13.5255 14.0358 11.7909 14.6373 9.99998 14.6666C4.16665 14.6666 0.833313 7.99994 0.833313 7.99994C1.86989 6.06819 3.30759 4.38045 5.04998 3.04994M8.24998 1.53327C8.82359 1.39901 9.41087 1.33189 9.99998 1.33327C15.8333 1.33327 19.1666 7.99994 19.1666 7.99994C18.6608 8.94628 18.0575 9.83722 17.3666 10.6583M11.7666 9.76661C11.5378 10.0122 11.2618 10.2092 10.9551 10.3459C10.6484 10.4825 10.3174 10.556 9.98172 10.5619C9.64605 10.5678 9.31262 10.5061 9.00132 10.3803C8.69003 10.2546 8.40725 10.0675 8.16985 9.83007C7.93246 9.59267 7.74531 9.30989 7.61957 8.9986C7.49383 8.6873 7.43209 8.35387 7.43801 8.0182C7.44393 7.68252 7.5174 7.35148 7.65404 7.04481C7.79068 6.73815 7.98769 6.46215 8.23331 6.23327" stroke="url(#paint0_linear_14_94)" stroke-width="2" stroke-linecap="round" stroke-linejoin="round"/>
<defs>
<linearGradient id="paint0_linear_14_94" x1="9.99998" y1="1.33325" x2="9.99998" y2="14.6666" gradientUnits="userSpaceOnUse">
<stop stop-color="#E1D24A"/>
<stop offset="1" stop-color="#C69223"/>
</linearGradient>
</defs>
</svg>
