<svg width="20" height="22" viewBox="0 0 20 22" fill="none" xmlns="http://www.w3.org/2000/svg">
<path d="M18.9437 9.6876L3.14686 0.846974C2.88365 0.693483 2.58056 0.622181 2.27652 0.642228C1.97249 0.662274 1.68139 0.772752 1.44061 0.959474C1.19471 1.15349 1.01617 1.42003 0.930343 1.72127C0.844516 2.0225 0.855761 2.34312 0.962482 2.6376L3.59686 9.99697C3.62351 10.0704 3.67187 10.1339 3.73551 10.1791C3.79915 10.2243 3.87505 10.2491 3.95311 10.2501H10.7219C10.9165 10.247 11.105 10.3179 11.2494 10.4484C11.3939 10.5789 11.4834 10.7593 11.5 10.9532C11.5064 11.0556 11.4917 11.1582 11.4569 11.2547C11.4221 11.3511 11.3679 11.4394 11.2976 11.5141C11.2273 11.5888 11.1424 11.6483 11.0483 11.6889C10.9541 11.7295 10.8525 11.7503 10.75 11.7501H3.95311C3.87505 11.7511 3.79915 11.7759 3.73551 11.8211C3.67187 11.8663 3.62351 11.9298 3.59686 12.0032L0.962482 19.3626C0.883438 19.5893 0.85962 19.8316 0.893007 20.0694C0.926394 20.3072 1.01602 20.5335 1.15445 20.7297C1.29287 20.9259 1.4761 21.0862 1.68892 21.1974C1.90174 21.3085 2.13801 21.3673 2.37811 21.3688C2.6336 21.3677 2.88483 21.3033 3.10936 21.1813L18.9437 12.3126C19.1757 12.1809 19.3686 11.99 19.5028 11.7594C19.637 11.5289 19.7078 11.2669 19.7078 11.0001C19.7078 10.7333 19.637 10.4713 19.5028 10.2408C19.3686 10.0102 19.1757 9.81934 18.9437 9.6876Z" fill="url(#paint0_linear_195_658)"/>
<defs>
<linearGradient id="paint0_linear_195_658" x1="10.2905" y1="0.638916" x2="10.2905" y2="21.3688" gradientUnits="userSpaceOnUse">
<stop stop-color="#E1D24A"/>
<stop offset="1" stop-color="#C69223"/>
</linearGradient>
</defs>
</svg>
